# xmcd
# Copyright (C) 1995-1998 Ti Kan
#
# Track frame offsets:
#       150
#       31714
#       50988
#       66409
#       82468
#       99120
#       113066
#       131759
#       146378
#       164351
#       178010
#       193868
#       216505
#       240347
#       263466
#
# Disc length: 3704 seconds
#
# Revision: 6
# Processed by: cddbd v1.5.1PL0 Copyright (c) Steve Scherf et al.
# Submitted via: CD-Transfer v1.0
#
DISCID=da0e760f
DTITLE=Kelis - Euro Express
DYEAR=04
DGENRE=
TTITLE0=These Words (Bimbo Jones Remix)
TTITLE1=Racing Green
TTITLE2=Give U More
TTITLE3=Bun Bad Mind
TTITLE4=Drop It Down
TTITLE5=Forward Riddim
TTITLE6=Thru These Times
TTITLE7=With You
TTITLE8=Bounds
TTITLE9=Pies
TTITLE10=Take Me Home
TTITLE11=I Don't Think We've Met (Devin Dazzle Mix)
TTITLE12=Unique (Andrea Doria Remix)
TTITLE13=Love Me Right
TTITLE14=Milkshake (Majestic 12 Remix)
EXTD=
EXTT0=
EXTT1=
EXTT2=
EXTT3=
EXTT4=
EXTT5=
EXTT6=
EXTT7=
EXTT8=
EXTT9=
EXTT10=
EXTT11=
EXTT12=
EXTT13=
EXTT14=
PLAYORDER=
